<?xml version="1.0" standalone="no"?>
<!DOCTYPE svg PUBLIC "-//W3C//DTD SVG 20010904//EN"
 "http://www.w3.org/TR/2001/REC-SVG-20010904/DTD/svg10.dtd">
<svg version="1.0" xmlns="http://www.w3.org/2000/svg"
 width="300.000000pt" height="300.000000pt" viewBox="0 0 300.000000 300.000000"
 preserveAspectRatio="xMidYMid meet">
<metadata>
Created by potrace 1.11, written by Peter Selinger 2001-2013
</metadata>
<g transform="translate(0.000000,300.000000) scale(0.100000,-0.100000)"
fill="#000000" stroke="none">
<path d="M1385 2989 c-734 -55 -1321 -645 -1374 -1381 -59 -822 560 -1539
1379 -1597 58 -4 155 -4 215 0 739 49 1335 645 1384 1384 17 269 -35 539 -150
767 -276 550 -843 872 -1454 827z m400 -103 c275 -62 500 -183 698 -375 281
-272 427 -618 427 -1011 0 -382 -133 -709 -399 -983 -199 -206 -447 -342 -733
-404 -118 -25 -438 -25 -556 0 -286 62 -534 198 -733 404 -101 104 -227 276
-233 319 -1 7 -7 18 -13 25 -35 45 -101 227 -130 361 -25 118 -25 438 0 556
95 439 370 793 777 997 106 53 247 96 430 129 58 10 397 -3 465 -18z"/>
<path d="M1523 2748 c-44 -55 -54 -122 -24 -159 22 -27 25 -24 40 56 l10 50
-2 -68 -2 -68 23 26 c26 30 27 53 7 101 -23 56 -40 77 -52 62z"/>
<path d="M1296 2668 c-10 -41 -6 -118 8 -146 16 -30 42 -56 68 -65 14 -5 16 0
11 31 -3 20 -14 58 -24 85 -10 26 -17 47 -14 47 11 0 54 -89 61 -124 7 -38 7
-39 20 -15 29 53 10 104 -62 168 -26 22 -50 41 -54 41 -4 0 -10 -10 -14 -22z"/>
<path d="M1098 2628 c-7 -92 22 -158 74 -171 19 -5 20 -3 14 40 -7 54 -2 53
18 -3 l14 -39 12 27 c22 46 5 91 -51 142 -28 25 -57 46 -65 46 -8 0 -14 -15
-16 -42z"/>
<path d="M1899 2620 c-56 -29 -89 -74 -89 -121 0 -21 5 -39 10 -39 6 0 10 6
10 13 0 16 59 111 65 105 2 -2 -7 -26 -20 -53 -23 -45 -32 -85 -20 -85 22 0
65 35 79 64 16 34 23 136 9 136 -5 -1 -24 -10 -44 -20z"/>
<path d="M970 2570 c0 -41 5 -56 25 -75 26 -27 45 -32 45 -12 0 8 3 7 9 -2 8
-12 11 -9 17 14 9 37 -10 71 -58 102 l-38 23 0 -50z"/>
<path d="M1680 2599 c-44 -27 -59 -47 -60 -80 0 -38 12 -43 26 -12 l13 28 -6
-28 c-5 -24 -3 -28 12 -25 32 6 57 51 53 96 l-3 42 -35 -21z"/>
<path d="M1490 2476 c0 -33 6 -52 24 -73 33 -38 44 -22 24 35 -14 38 -14 43
-2 27 8 -11 17 -30 21 -42 8 -33 23 -28 23 6 0 22 -10 38 -37 60 -21 17 -41
31 -45 31 -5 0 -8 -20 -8 -44z"/>
<path d="M2005 2497 c-45 -25 -70 -67 -60 -98 7 -20 8 -19 26 10 24 40 32 40
12 0 -19 -37 -12 -45 25 -30 33 14 62 66 62 111 0 36 -12 37 -65 7z"/>
<path d="M811 2478 c13 -46 41 -81 72 -89 35 -9 40 -1 21 30 l-17 26 27 -24
c24 -23 26 -23 26 -5 0 44 -64 94 -119 94 -17 0 -19 -4 -10 -32z"/>
<path d="M1691 2434 c-68 -74 -80 -119 -50 -182 l23 -46 13 68 c16 91 23 95
16 8 -6 -69 -5 -71 16 -65 40 10 75 69 75 127 1 53 -21 146 -34 146 -5 0 -31
-25 -59 -56z"/>
<path d="M986 2402 c-7 -21 9 -114 24 -142 10 -19 59 -50 79 -50 14 0 -2 51
-34 108 l-26 47 25 -24 c14 -13 35 -44 47 -70 20 -42 22 -44 30 -24 18 50 -15
105 -92 151 -44 27 -46 27 -53 4z"/>
<path d="M1222 2376 c3 -26 14 -56 23 -66 35 -38 47 -17 20 34 -8 15 -15 31
-15 35 1 11 40 -44 40 -56 0 -20 20 -15 20 5 0 26 -27 60 -62 78 l-31 16 5
-46z"/>
<path d="M1127 2385 c6 -26 30 -52 40 -42 3 4 0 13 -7 22 -8 9 -9 15 -2 15 6
0 16 -8 21 -17 6 -10 11 -13 11 -6 0 12 -46 53 -60 53 -4 0 -5 -11 -3 -25z"/>
<path d="M1355 2372 c-8 -50 0 -78 26 -92 22 -12 23 -8 8 23 -10 21 -10 21 8
-1 10 -13 22 -20 26 -16 16 17 5 57 -27 91 l-34 37 -7 -42z"/>
<path d="M2145 2401 c-63 -15 -95 -45 -95 -89 0 -16 7 -13 39 19 52 53 72 50
21 -3 -46 -49 -49 -58 -16 -58 36 0 82 44 99 95 18 50 16 51 -48 36z"/>
<path d="M1867 2374 c-30 -16 -50 -55 -41 -79 13 -33 61 -6 70 40 9 48 3 56
-29 39z"/>
<path d="M790 2357 c0 -61 51 -131 90 -125 21 3 21 4 -10 46 -26 36 -27 41
-10 32 12 -6 30 -26 40 -43 l20 -32 0 31 c0 38 -30 68 -88 88 -31 11 -42 12
-42 3z"/>
<path d="M1466 2332 c-9 -58 9 -109 46 -128 l31 -16 -6 36 c-7 45 -1 47 11 4
l9 -33 13 27 c18 38 -2 81 -55 118 l-43 29 -6 -37z"/>
<path d="M1960 2319 c-39 -16 -60 -40 -60 -70 0 -33 13 -43 45 -35 27 7 44 33
56 83 8 36 2 39 -41 22z m-37 -84 c-3 -9 -8 -14 -10 -11 -3 3 -2 9 2 15 9 16
15 13 8 -4z"/>
<path d="M635 2289 c21 -68 51 -99 95 -99 43 0 38 70 -8 94 -15 7 -42 17 -60
21 -32 7 -34 6 -27 -16z m105 -70 c15 -28 5 -23 -15 7 -9 15 -12 23 -6 20 6
-4 16 -16 21 -27z"/>
<path d="M1210 2260 c0 -20 33 -60 49 -60 33 0 21 52 -15 68 -33 16 -34 15
-34 -8z"/>
<path d="M2184 2254 c-26 -6 -69 -51 -78 -81 l-7 -23 43 25 c60 34 69 31 18
-6 -41 -30 -42 -33 -25 -45 26 -19 59 -17 104 6 46 23 108 100 89 111 -17 10
-118 18 -144 13z"/>
<path d="M1792 2233 c-7 -2 -17 -14 -24 -26 l-11 -22 23 20 23 20 -12 -22
c-13 -25 -3 -31 17 -11 13 13 17 48 5 47 -5 0 -14 -3 -21 -6z"/>
<path d="M2040 2224 c-53 -23 -80 -53 -80 -88 1 -28 2 -29 12 -11 15 27 50 65
60 65 4 0 -6 -19 -23 -42 -30 -42 -30 -43 -9 -46 40 -6 85 58 78 111 -3 25 -4
25 -38 11z"/>
<path d="M1177 2213 c-2 -5 -8 -29 -11 -55 -12 -81 20 -151 78 -172 17 -6 18
-2 13 44 -8 63 -1 64 14 4 11 -43 13 -45 26 -29 19 27 16 83 -7 120 -27 43
-104 103 -113 88z"/>
<path d="M1342 2211 l-23 -6 28 -26 c33 -31 62 -42 81 -30 10 6 3 13 -22 25
-57 27 -42 32 22 9 6 -3 12 0 12 5 0 10 -20 18 -60 27 -8 1 -25 0 -38 -4z"/>
<path d="M816 2164 l-48 -15 23 -26 c49 -52 100 -83 141 -83 40 0 78 14 78 29
0 4 -19 16 -41 27 -50 22 -36 31 15 10 38 -16 47 -6 23 24 -40 51 -100 61
-191 34z m101 -40 c-3 -3 -12 -4 -19 -1 -8 3 -5 6 6 6 11 1 17 -2 13 -5z"/>
<path d="M1675 2166 c-44 -20 -75 -53 -75 -81 0 -33 7 -32 54 13 38 35 39 36
22 7 -10 -16 -27 -38 -38 -47 -20 -18 -20 -18 1 -18 29 0 58 31 70 77 19 68
16 71 -34 49z"/>
<path d="M1824 2166 c-38 -17 -74 -61 -74 -92 0 -24 14 -32 25 -14 3 5 16 15
28 21 17 8 16 4 -7 -16 -32 -30 -28 -43 11 -29 35 12 61 50 69 102 7 47 1 51
-52 28z"/>
<path d="M583 2140 c-24 -10 -43 -21 -43 -24 0 -3 20 -17 43 -31 48 -28 93
-32 122 -12 17 13 16 15 -15 25 -18 7 -47 12 -64 12 -25 1 -28 3 -15 10 10 6
35 6 63 1 52 -10 60 1 16 24 -38 19 -56 19 -107 -5z"/>
<path d="M1507 2153 c-14 -13 -7 -33 11 -33 19 0 42 18 42 32 0 10 -44 11 -53
1z"/>
<path d="M1320 2112 c0 -11 9 -27 20 -37 23 -20 25 -14 9 18 -12 22 -12 22 10
3 11 -11 21 -14 21 -8 0 11 -38 42 -52 42 -5 0 -8 -8 -8 -18z"/>
<path d="M2278 2101 l-33 -29 70 4 70 3 -55 -10 c-70 -12 -82 -24 -50 -49 33
-26 102 -26 156 1 73 35 73 43 3 78 -79 40 -119 40 -161 2z"/>
<path d="M1424 2087 c-32 -29 -36 -37 -29 -63 7 -26 8 -27 15 -9 7 17 9 17 9
3 1 -21 24 -24 39 -5 17 20 26 93 13 101 -6 4 -27 -8 -47 -27z"/>
<path d="M1060 2075 c-6 -16 -14 -52 -16 -80 -6 -55 16 -104 57 -126 22 -11
22 -11 16 47 -4 33 -9 70 -12 84 -4 18 0 15 11 -10 9 -19 20 -55 24 -80 l7
-45 17 38 c22 51 10 90 -49 154 l-43 48 -12 -30z"/>
<path d="M2132 2068 c-14 -14 -16 -32 -2 -23 6 3 7 -1 4 -9 -8 -21 15 -21 44
0 31 22 28 44 -6 44 -15 0 -33 -5 -40 -12z"/>
<path d="M1901 2053 l-35 -17 65 -19 c82 -24 98 -39 22 -21 -76 18 -83 18 -83
-5 0 -25 54 -79 87 -87 28 -7 170 0 179 9 10 10 -57 95 -96 122 -49 34 -96 40
-139 18z"/>
<path d="M450 2021 c-19 -10 -35 -22 -34 -27 1 -14 66 -44 95 -44 14 0 34 9
43 19 17 18 17 19 -1 24 -17 4 -17 5 1 6 18 1 18 2 1 21 -23 25 -60 25 -105 1z"/>
<path d="M1507 2021 c-17 -6 -16 -9 9 -34 30 -30 78 -37 88 -12 13 36 -49 65
-97 46z"/>
<path d="M1670 2005 l-25 -14 30 -1 c17 -1 46 -8 65 -15 34 -13 33 -13 -27 -8
-39 4 -63 2 -63 -4 0 -14 31 -39 57 -47 22 -7 113 12 113 23 0 13 -55 60 -83
70 -35 14 -36 13 -67 -4z"/>
<path d="M2180 2008 c-24 -9 -22 -11 29 -24 75 -20 76 -25 3 -18 -39 4 -62 3
-62 -3 0 -14 31 -39 59 -48 24 -7 111 12 111 25 0 10 -68 70 -80 70 -4 0 -14
2 -22 4 -7 3 -24 0 -38 -6z"/>
<path d="M626 2001 c-18 -7 -18 -8 5 -24 39 -28 69 -19 32 9 -16 12 -15 12 7
8 20 -5 22 -3 10 5 -17 12 -27 13 -54 2z"/>
<path d="M770 2003 c-8 -2 -21 -7 -29 -9 -11 -3 -7 -12 14 -34 34 -35 74 -53
111 -48 38 4 41 24 7 42 -36 20 -21 21 16 1 28 -14 29 -13 24 6 -3 11 -15 26
-26 34 -21 14 -86 19 -117 8z"/>
<path d="M2392 1965 c-34 -25 -21 -64 20 -65 20 0 86 55 77 65 -16 15 -75 15
-97 0z"/>
<path d="M1330 1963 c-91 -26 -130 -58 -130 -108 0 -21 11 -19 56 11 24 17 33
20 24 9 -8 -10 -28 -26 -45 -37 l-30 -18 38 0 c48 0 80 32 96 96 13 51 13 53
-9 47z"/>
<path d="M1486 1958 c-3 -10 -8 -24 -10 -31 -2 -8 0 -20 5 -28 6 -10 9 -6 10
16 1 24 3 25 6 8 2 -13 9 -23 14 -23 13 0 11 21 -6 50 -12 22 -14 23 -19 8z"/>
<path d="M1385 1887 c-17 -58 -11 -91 19 -116 22 -19 30 6 22 67 -8 59 9 36
19 -26 8 -50 29 -44 27 9 -1 27 -41 101 -63 115 -5 2 -15 -20 -24 -49z"/>
<path d="M1624 1914 c3 -9 6 -20 6 -25 0 -6 4 -8 9 -5 12 8 2 46 -11 46 -6 0
-7 -7 -4 -16z"/>
<path d="M635 1908 c-35 -12 -110 -65 -143 -101 l-23 -24 48 -14 c65 -19 150
-17 190 4 35 18 70 63 59 74 -6 7 -123 -8 -176 -22 -20 -5 -22 -4 -10 4 24 18
116 42 160 43 46 0 45 9 -4 32 -39 18 -58 19 -101 4z"/>
<path d="M873 1873 c-38 -22 -87 -79 -74 -87 17 -11 99 -19 125 -12 25 6 66
42 66 58 0 4 -17 9 -37 9 l-38 2 40 6 40 6 -25 18 c-13 9 -34 17 -45 17 -11 0
-34 -8 -52 -17z"/>
<path d="M1541 1859 c-40 -39 -48 -72 -27 -104 21 -31 31 -31 61 0 26 25 30
49 19 104 -8 39 -15 39 -53 0z m9 -99 c-6 -12 -14 -20 -17 -17 -2 3 1 14 8 26
7 11 15 18 17 16 2 -2 -2 -13 -8 -25z"/>
<path d="M1867 1884 c-3 -4 16 -17 42 -30 27 -14 57 -34 67 -45 16 -18 13 -18
-31 5 -57 29 -105 42 -105 30 0 -24 44 -77 75 -90 42 -17 135 -19 135 -2 0 23
-63 109 -91 123 -29 15 -81 20 -92 9z"/>
<path d="M2196 1871 c-3 -5 8 -14 24 -21 17 -7 29 -15 27 -17 -3 -2 -16 2 -31
8 -31 14 -40 8 -31 -20 9 -29 55 -51 105 -51 45 0 45 0 25 40 -27 53 -101 91
-119 61z"/>
<path d="M2078 1850 c27 -12 29 -20 2 -13 -24 6 -27 -12 -4 -21 23 -9 54 -7
54 2 0 16 -36 42 -56 41 -17 0 -16 -1 4 -9z"/>
<path d="M2396 1846 c18 -8 35 -19 39 -26 4 -7 -6 -5 -25 5 -41 21 -57 15 -33
-13 12 -15 33 -25 62 -29 43 -6 43 -6 31 18 -23 43 -42 59 -74 59 l-31 -1 31
-13z"/>
<path d="M1648 1839 c-31 -17 -21 -37 20 -42 36 -4 36 -4 -8 -6 l-45 -2 24
-19 c33 -28 69 -25 126 11 l49 31 -34 19 c-38 20 -105 24 -132 8z"/>
<path d="M1040 1827 c-30 -15 -60 -70 -60 -110 0 -25 3 -27 23 -21 69 21 111
63 105 105 -3 20 -6 18 -31 -18 -16 -23 -35 -44 -43 -47 -7 -3 0 13 16 36 44
60 40 80 -10 55z"/>
<path d="M1191 1768 c22 -44 62 -78 91 -78 34 0 37 21 6 44 -13 9 -16 14 -8
10 8 -4 23 -14 33 -22 28 -25 22 14 -8 43 -19 20 -34 25 -75 25 -49 0 -50 -1
-39 -22z"/>
<path d="M844 1708 l-27 -33 38 -3 c44 -4 80 23 69 51 -10 28 -50 20 -80 -15z"/>
<path d="M1731 1723 c-22 -18 -21 -18 31 -16 57 3 55 -2 -5 -12 -32 -5 -36 -9
-27 -21 16 -18 63 -18 101 1 34 18 32 27 -15 49 -43 20 -59 20 -85 -1z"/>
<path d="M693 1715 c-37 -16 -57 -43 -84 -116 l-20 -52 48 5 c89 9 143 46 158
111 9 34 -12 36 -64 5 -35 -21 -36 -21 -18 -1 10 12 32 27 49 34 27 11 29 14
12 20 -28 11 -45 10 -81 -6z"/>
<path d="M2152 1717 c9 -7 25 -17 35 -24 14 -9 11 -9 -14 0 -39 14 -50 5 -35
-27 16 -35 48 -53 110 -60 l53 -7 -16 38 c-26 63 -62 93 -109 93 -35 -1 -38
-3 -24 -13z"/>
<path d="M1367 1697 c-6 -16 16 -40 46 -50 12 -4 17 -17 17 -42 0 -31 3 -35
25 -35 16 0 25 -6 25 -16 0 -12 -6 -15 -22 -10 -60 17 -80 18 -88 6 -12 -20
-1 -38 31 -49 25 -8 29 -15 29 -45 0 -32 3 -36 25 -36 16 0 25 -6 25 -16 0
-12 -6 -15 -25 -10 -14 3 -37 9 -51 12 -51 13 -54 -35 -3 -56 24 -10 29 -18
29 -46 0 -27 4 -34 19 -34 21 0 37 -17 27 -27 -3 -4 -24 -1 -47 6 -68 20 -92
-23 -28 -49 24 -10 29 -18 29 -46 0 -26 4 -33 22 -36 12 -2 24 -9 26 -17 4
-11 -2 -12 -29 -6 -61 13 -74 11 -77 -11 -2 -16 5 -25 28 -34 25 -10 30 -18
28 -39 -3 -26 -4 -26 -153 -43 -318 -35 -648 -33 -917 8 -54 7 -106 14 -115
13 -33 -2 132 -49 257 -73 285 -56 520 -60 930 -17 151 16 349 35 438 42 196
14 460 7 551 -16 35 -8 66 -14 68 -11 7 6 -71 34 -154 55 -143 36 -249 44
-502 39 -222 -4 -241 -3 -241 13 0 9 13 22 31 29 22 9 29 18 27 34 -3 22 -16
24 -77 11 -27 -6 -33 -5 -29 6 2 8 14 15 26 17 18 3 22 10 22 36 0 28 5 36 31
46 22 9 29 18 27 34 -3 22 -16 24 -77 11 -27 -6 -33 -5 -29 6 2 8 14 15 26 17
18 3 22 10 22 36 0 28 5 36 29 46 51 21 48 69 -3 56 -14 -3 -37 -9 -51 -12
-19 -5 -25 -2 -25 10 0 10 9 16 25 16 22 0 25 4 25 35 0 29 5 38 28 48 33 14
42 26 35 45 -6 14 -33 13 -90 -4 -17 -5 -23 -2 -23 10 0 10 9 16 25 16 22 0
25 4 25 35 0 28 5 37 23 44 32 12 48 34 37 50 -7 12 -18 12 -69 1 -56 -12 -93
-10 -177 6 -23 4 -33 2 -37 -9z"/>
<path d="M1093 1674 c-46 -35 -42 -51 12 -60 34 -5 51 -2 70 10 27 18 33 41
13 49 -10 4 -10 6 0 6 7 1 10 6 7 11 -12 19 -69 10 -102 -16z"/>
<path d="M1965 1691 c-17 -7 -15 -9 15 -20 19 -6 46 -21 60 -32 20 -17 21 -19
5 -14 -111 41 -111 41 -100 6 9 -30 56 -51 115 -51 27 0 50 2 50 5 0 18 -55
87 -79 100 -33 17 -37 17 -66 6z"/>
<path d="M1269 1645 c-38 -21 -86 -135 -57 -135 59 0 138 56 138 97 0 31 -10
29 -65 -12 -41 -32 -44 -33 -29 -9 10 14 33 36 53 50 33 23 34 24 11 24 -14
-1 -37 -7 -51 -15z"/>
<path d="M874 1629 c-36 -18 -89 -139 -61 -139 62 0 137 52 137 95 0 33 -9 32
-59 -11 -23 -20 -44 -35 -46 -33 -5 6 35 50 69 77 28 22 28 22 5 21 -13 0 -33
-5 -45 -10z"/>
<path d="M1696 1625 c18 -13 18 -14 -5 -8 -18 4 -22 2 -19 -8 5 -15 68 -26 68
-11 0 13 -34 42 -50 42 -9 0 -7 -5 6 -15z"/>
<path d="M1820 1620 c-13 -9 -13 -10 0 -10 9 0 31 -14 50 -30 l35 -30 -39 25
c-65 42 -84 29 -47 -31 19 -31 48 -46 119 -58 31 -5 33 -4 26 17 -11 36 -41
92 -57 105 -20 17 -70 24 -87 12z"/>
<path d="M987 1553 c-8 -15 -17 -41 -21 -56 -6 -26 -5 -28 16 -22 44 13 73 41
73 71 0 24 -5 30 -27 32 -21 3 -30 -3 -41 -25z m58 7 c-3 -5 -12 -10 -18 -10
-7 0 -6 4 3 10 19 12 23 12 15 0z"/>
<path d="M1127 1567 c-10 -6 -20 -30 -24 -51 l-6 -39 31 19 c32 18 50 49 37
62 -3 4 -15 -4 -25 -18 -23 -30 -27 -14 -4 18 17 25 15 27 -9 9z"/>
<path d="M1705 1520 c-10 -32 3 -55 40 -73 40 -19 85 -22 85 -6 0 16 -20 51
-43 77 -26 28 -73 30 -82 2z"/>
<path d="M1241 1473 c-11 -10 -27 -35 -36 -55 l-15 -38 32 0 c40 0 94 31 103
60 14 45 -43 67 -84 33z m64 -13 c-27 -12 -43 -12 -25 0 8 5 22 9 30 9 10 0 8
-3 -5 -9z"/>
<path d="M1810 884 c-85 -7 -229 -22 -320 -33 l-165 -20 255 5 c140 4 323 9
405 13 270 12 496 -9 639 -59 33 -11 61 -18 63 -17 7 8 -135 66 -207 85 -166
45 -363 53 -670 26z"/>
<path d="M296 822 c17 -16 138 -61 219 -83 163 -44 525 -36 1000 21 l150 18
-113 1 c-63 0 -243 -6 -400 -15 -394 -22 -641 -8 -799 47 -62 21 -71 23 -57
11z"/>
<path d="M1215 445 c0 -98 1 -105 20 -105 18 0 20 7 20 82 0 79 1 83 27 98 49
27 63 7 66 -94 3 -78 5 -86 22 -86 18 0 20 7 20 84 0 83 0 84 30 96 49 20 60
3 60 -96 0 -77 2 -84 20 -84 18 0 20 7 20 83 0 59 -5 89 -16 105 -18 26 -59
29 -92 6 -21 -15 -25 -15 -41 0 -22 20 -54 20 -93 0 -28 -15 -30 -15 -25 0 5
12 0 16 -16 16 -21 0 -22 -3 -22 -105z"/>
<path d="M1599 522 c-25 -22 -32 -37 -33 -69 -2 -77 44 -120 119 -111 34 4 35
3 35 -28 0 -59 -63 -83 -114 -43 -23 18 -25 19 -19 2 10 -27 23 -33 74 -33 36
0 50 5 70 26 22 24 24 34 27 153 l4 128 -66 1 c-59 1 -70 -2 -97 -26z m99 2
c19 -13 22 -24 22 -85 0 -63 -2 -70 -22 -78 -35 -13 -61 1 -82 44 -24 48 -13
103 24 122 32 16 31 16 58 -3z"/>
</g>
</svg>
